<svg preserveAspectRatio="none" width="100%" height="100%" overflow="visible" style="display: block;" viewBox="0 0 1202 16" fill="none" xmlns="http://www.w3.org/2000/svg">
<g id="Group 37">
<path id="Arrow 5" d="M1201.71 8.70711C1202.1 8.31658 1202.1 7.68342 1201.71 7.29289L1195.34 0.928932C1194.95 0.538408 1194.32 0.538408 1193.93 0.928932C1193.54 1.31946 1193.54 1.95262 1193.93 2.34315L1199.59 8L1193.93 13.6569C1193.54 14.0474 1193.54 14.6805 1193.93 15.0711C1194.32 15.4616 1194.95 15.4616 1195.34 15.0711L1201.71 8.70711ZM1151 8V9H1201V8V7H1151V8Z" fill="var(--stroke-0, black)"/>
<path id="Arrow 6" d="M0.292893 7.29289C-0.0976311 7.68342 -0.0976311 8.31658 0.292893 8.70711L6.65685 15.0711C7.04738 15.4616 7.68054 15.4616 8.07107 15.0711C8.46159 14.6805 8.46159 14.0474 8.07107 13.6569L2.41421 8L8.07107 2.34315C8.46159 1.95262 8.46159 1.31946 8.07107 0.928932C7.68054 0.538408 7.04738 0.538408 6.65685 0.928932L0.292893 7.29289ZM51 8V7L1 7V8V9L51 9V8Z" fill="var(--stroke-0, black)"/>
</g>
</svg>
